<svg width="25" height="25" viewBox="0 0 25 25" fill="none" xmlns="http://www.w3.org/2000/svg">
<path d="M6.61396 23.5303L0 25L1.46976 18.386C0.5318 16.632 0 14.6281 0 12.5C0 5.59644 5.59644 0 12.5 0C19.4035 0 25 5.59644 25 12.5C25 19.4035 19.4035 25 12.5 25C10.3719 25 8.368 24.4683 6.61396 23.5303ZM6.97594 20.8888L7.79285 21.3256C9.2281 22.0931 10.8319 22.5 12.5 22.5C18.0229 22.5 22.5 18.0229 22.5 12.5C22.5 6.97715 18.0229 2.5 12.5 2.5C6.97715 2.5 2.5 6.97715 2.5 12.5C2.5 14.1681 2.90686 15.7719 3.67436 17.2071L4.1112 18.024L3.2927 21.7073L6.97594 20.8888Z" fill="#474747" fill-opacity="0.5"/>
</svg>
