<svg width="21" height="28" viewBox="0 0 21 28" fill="none" xmlns="http://www.w3.org/2000/svg">
<path d="M0 27.5625C0 21.7635 4.70101 17.0625 10.5 17.0625C16.299 17.0625 21 21.7635 21 27.5625H18.375C18.375 23.2133 14.8492 19.6875 10.5 19.6875C6.15076 19.6875 2.625 23.2133 2.625 27.5625H0ZM10.5 15.75C6.14906 15.75 2.625 12.2259 2.625 7.875C2.625 3.52406 6.14906 0 10.5 0C14.8509 0 18.375 3.52406 18.375 7.875C18.375 12.2259 14.8509 15.75 10.5 15.75ZM10.5 13.125C13.4006 13.125 15.75 10.7756 15.75 7.875C15.75 4.97437 13.4006 2.625 10.5 2.625C7.59937 2.625 5.25 4.97437 5.25 7.875C5.25 10.7756 7.59937 13.125 10.5 13.125Z" fill="#474747" fill-opacity="0.5"/>
</svg>
